<?xml version="1.0" encoding="utf-8"?>
<!-- Generator: Adobe Illustrator 18.0.0, SVG Export Plug-In . SVG Version: 6.00 Build 0)  -->
<!DOCTYPE svg PUBLIC "-//W3C//DTD SVG 1.1//EN" "http://www.w3.org/Graphics/SVG/1.1/DTD/svg11.dtd">
<svg version="1.1" id="Calque_1" xmlns="http://www.w3.org/2000/svg" xmlns:xlink="http://www.w3.org/1999/xlink" x="0px" y="0px"
	 viewBox="0 0 300 56.7" enable-background="new 0 0 300 56.7" xml:space="preserve">
<g>
	<path fill="#23527C" d="M29,28.3c0.3,0,0.5,0.1,0.7,0.3l1.8,2c-1.4,1.6-3.1,2.9-5.1,3.8c-2,0.9-4.4,1.4-7.3,1.4
		c-2.5,0-4.7-0.4-6.7-1.3s-3.7-2.1-5.2-3.6c-1.4-1.5-2.5-3.4-3.3-5.6c-0.8-2.2-1.2-4.5-1.2-7.1c0-2.6,0.4-5,1.3-7.1s2-4,3.5-5.6
		C9,3.9,10.9,2.7,13,1.9c2.1-0.9,4.5-1.3,7-1.3c2.5,0,4.7,0.4,6.5,1.2C28.4,2.6,30,3.6,31.4,5l-1.5,2.1c-0.1,0.2-0.2,0.3-0.4,0.4
		c-0.1,0.1-0.4,0.2-0.6,0.2c-0.2,0-0.4-0.1-0.7-0.2c-0.2-0.2-0.5-0.3-0.8-0.6c-0.3-0.2-0.7-0.5-1.1-0.7s-0.9-0.5-1.5-0.7
		c-0.6-0.2-1.3-0.4-2.1-0.6C21.9,4.7,21,4.6,20,4.6c-1.8,0-3.5,0.3-5.1,0.9c-1.5,0.6-2.8,1.5-3.9,2.7c-1.1,1.2-2,2.6-2.6,4.3
		c-0.6,1.7-0.9,3.6-0.9,5.6c0,2.1,0.3,4.1,0.9,5.7c0.6,1.7,1.5,3.1,2.5,4.3c1.1,1.2,2.3,2,3.8,2.7c1.5,0.6,3,0.9,4.7,0.9
		c1,0,1.9-0.1,2.8-0.2c0.8-0.1,1.6-0.3,2.3-0.6c0.7-0.3,1.3-0.6,1.9-1s1.2-0.9,1.8-1.4C28.4,28.4,28.7,28.3,29,28.3z"/>
	<path fill="#23527C" d="M42.3,31.5h14.9v3.9H37.6V1h4.7V31.5z"/>
	<path fill="#23527C" d="M90.6,35.4H87c-0.4,0-0.8-0.1-1-0.3c-0.3-0.2-0.4-0.5-0.6-0.8L82.2,26H66.7l-3.2,8.3
		c-0.1,0.3-0.3,0.5-0.6,0.8c-0.3,0.2-0.6,0.3-1,0.3h-3.6L72.1,1h4.7L90.6,35.4z M68,22.6h12.8l-5.4-14c-0.4-0.9-0.7-1.9-1-3.2
		c-0.2,0.7-0.3,1.3-0.5,1.8c-0.2,0.6-0.3,1-0.5,1.5L68,22.6z"/>
	<path fill="#23527C" d="M100.4,35.4h-4.7V1h4.7V35.4z"/>
	<path fill="#23527C" d="M114.8,21v14.4h-4.6V1h9.7c2.2,0,4.1,0.2,5.6,0.7s2.9,1.1,3.9,1.9c1,0.8,1.8,1.8,2.3,3
		c0.5,1.2,0.7,2.5,0.7,3.9c0,1.2-0.2,2.4-0.6,3.4c-0.4,1.1-0.9,2-1.7,2.8c-0.7,0.8-1.6,1.6-2.7,2.1s-2.2,1-3.6,1.3
		c0.6,0.3,1.1,0.8,1.5,1.5l10,13.7h-4.1c-0.8,0-1.5-0.3-1.9-1l-8.9-12.3c-0.3-0.4-0.6-0.7-0.9-0.8c-0.3-0.2-0.8-0.3-1.4-0.3H114.8z
		 M114.8,17.6h4.9c1.4,0,2.6-0.2,3.6-0.5c1-0.3,1.9-0.8,2.6-1.4c0.7-0.6,1.2-1.3,1.6-2.1c0.4-0.8,0.5-1.8,0.5-2.8c0-2-0.7-3.6-2-4.6
		c-1.4-1-3.4-1.6-6-1.6h-5.1V17.6z"/>
	<path fill="#23527C" d="M161.8,1v3.8h-16.5v11.4h13.4v3.6h-13.4v11.7h16.5v3.8h-21.2V1H161.8z"/>
	<path fill="#23527C" d="M202,28.3c0.3,0,0.5,0.1,0.7,0.3l1.8,2c-1.4,1.6-3.1,2.9-5.1,3.8s-4.4,1.4-7.3,1.4c-2.5,0-4.7-0.4-6.7-1.3
		c-2-0.9-3.7-2.1-5.2-3.6c-1.4-1.5-2.5-3.4-3.3-5.6c-0.8-2.2-1.2-4.5-1.2-7.1c0-2.6,0.4-5,1.3-7.1s2-4,3.5-5.6
		c1.5-1.6,3.3-2.8,5.5-3.6c2.1-0.9,4.5-1.3,7-1.3c2.5,0,4.7,0.4,6.5,1.2c1.8,0.8,3.5,1.8,4.9,3.2l-1.5,2.1c-0.1,0.2-0.2,0.3-0.4,0.4
		c-0.1,0.1-0.4,0.2-0.6,0.2c-0.2,0-0.4-0.1-0.7-0.2c-0.2-0.2-0.5-0.3-0.8-0.6c-0.3-0.2-0.7-0.5-1.1-0.7c-0.4-0.3-0.9-0.5-1.5-0.7
		c-0.6-0.2-1.3-0.4-2.1-0.6c-0.8-0.2-1.7-0.2-2.7-0.2c-1.8,0-3.5,0.3-5.1,0.9c-1.5,0.6-2.8,1.5-3.9,2.7c-1.1,1.2-2,2.6-2.6,4.3
		c-0.6,1.7-0.9,3.6-0.9,5.6c0,2.1,0.3,4.1,0.9,5.7c0.6,1.7,1.5,3.1,2.5,4.3c1.1,1.2,2.3,2,3.8,2.7c1.5,0.6,3,0.9,4.7,0.9
		c1,0,1.9-0.1,2.8-0.2c0.8-0.1,1.6-0.3,2.3-0.6c0.7-0.3,1.3-0.6,1.9-1c0.6-0.4,1.2-0.9,1.8-1.4C201.4,28.4,201.7,28.3,202,28.3z"/>
	<path fill="#23527C" d="M224,31.7c1.4,0,2.7-0.2,3.8-0.7c1.1-0.5,2.1-1.2,2.8-2c0.8-0.9,1.4-1.9,1.8-3.1c0.4-1.2,0.6-2.5,0.6-4V1
		h4.6v20.9c0,2-0.3,3.8-0.9,5.5c-0.6,1.7-1.5,3.2-2.7,4.4c-1.2,1.2-2.6,2.2-4.3,2.9c-1.7,0.7-3.6,1.1-5.7,1.1s-4-0.4-5.7-1.1
		c-1.7-0.7-3.1-1.7-4.3-2.9c-1.2-1.2-2.1-2.7-2.7-4.4c-0.6-1.7-0.9-3.5-0.9-5.5V1h4.6v20.9c0,1.4,0.2,2.8,0.6,4
		c0.4,1.2,1,2.2,1.8,3.1c0.8,0.9,1.7,1.5,2.9,2C221.3,31.4,222.5,31.7,224,31.7z"/>
	<path fill="#23527C" d="M250.8,21v14.4h-4.6V1h9.7c2.2,0,4.1,0.2,5.6,0.7s2.9,1.1,3.9,1.9c1,0.8,1.8,1.8,2.3,3
		c0.5,1.2,0.7,2.5,0.7,3.9c0,1.2-0.2,2.4-0.6,3.4c-0.4,1.1-0.9,2-1.7,2.8c-0.7,0.8-1.6,1.6-2.7,2.1c-1,0.6-2.2,1-3.6,1.3
		c0.6,0.3,1.1,0.8,1.5,1.5l10,13.7h-4.1c-0.8,0-1.5-0.3-1.9-1l-8.9-12.3c-0.3-0.4-0.6-0.7-0.9-0.8s-0.8-0.3-1.4-0.3H250.8z
		 M250.8,17.6h4.9c1.4,0,2.6-0.2,3.6-0.5c1-0.3,1.9-0.8,2.6-1.4s1.2-1.3,1.6-2.1c0.4-0.8,0.5-1.8,0.5-2.8c0-2-0.7-3.6-2-4.6
		c-1.4-1-3.4-1.6-6-1.6h-5.1V17.6z"/>
	<path fill="#23527C" d="M298.7,1v3.9h-11.1v30.5H283V4.9h-11.2V1H298.7z"/>
</g>
<g>
	<path fill="#585C65" d="M64.5,48.8v7.4h-1.3V37.8h4.7c2.2,0,3.8,0.5,4.9,1.4c1.1,0.9,1.6,2.3,1.6,4c0,0.8-0.1,1.5-0.4,2.2
		c-0.3,0.7-0.7,1.3-1.3,1.7s-1.2,0.9-2.1,1.1c-0.8,0.3-1.7,0.4-2.7,0.4H64.5z M64.5,47.7h3.4c0.8,0,1.5-0.1,2.2-0.3
		c0.6-0.2,1.2-0.5,1.6-0.9c0.4-0.4,0.8-0.9,1-1.4c0.2-0.5,0.4-1.1,0.4-1.8c0-1.4-0.4-2.5-1.3-3.3c-0.9-0.8-2.2-1.1-3.9-1.1h-3.4
		V47.7z"/>
	<path fill="#585C65" d="M92.4,56.2h-1.3v-8.8H79.6v8.8h-1.3V37.8h1.3v8.6h11.5v-8.6h1.3V56.2z"/>
	<path fill="#585C65" d="M114.3,47c0,1.4-0.2,2.7-0.6,3.9c-0.4,1.2-1,2.1-1.8,3c-0.8,0.8-1.7,1.5-2.8,1.9c-1.1,0.4-2.3,0.7-3.6,0.7
		c-1.3,0-2.5-0.2-3.5-0.7c-1.1-0.4-2-1.1-2.8-1.9s-1.4-1.8-1.8-3c-0.4-1.2-0.6-2.4-0.6-3.9c0-1.4,0.2-2.7,0.6-3.9
		c0.4-1.2,1-2.1,1.8-3s1.7-1.5,2.8-1.9s2.3-0.7,3.5-0.7c1.3,0,2.5,0.2,3.6,0.7c1.1,0.4,2,1.1,2.8,1.9c0.8,0.8,1.4,1.8,1.8,3
		C114.1,44.3,114.3,45.6,114.3,47z M112.9,47c0-1.3-0.2-2.4-0.5-3.5c-0.4-1-0.9-1.9-1.5-2.6c-0.6-0.7-1.4-1.3-2.3-1.6
		c-0.9-0.4-1.9-0.6-3-0.6c-1.1,0-2.1,0.2-3,0.6c-0.9,0.4-1.7,0.9-2.3,1.6c-0.7,0.7-1.2,1.6-1.5,2.6c-0.4,1-0.5,2.2-0.5,3.5
		c0,1.3,0.2,2.4,0.5,3.5c0.4,1,0.9,1.9,1.5,2.6c0.7,0.7,1.4,1.3,2.3,1.6c0.9,0.4,1.9,0.6,3,0.6c1.1,0,2.1-0.2,3-0.6
		c0.9-0.4,1.7-0.9,2.3-1.6c0.6-0.7,1.1-1.6,1.5-2.6C112.7,49.5,112.9,48.3,112.9,47z"/>
	<path fill="#585C65" d="M129.1,37.8V39h-6.5v17.3h-1.3V39h-6.5v-1.1H129.1z"/>
	<path fill="#585C65" d="M147.1,47c0,1.4-0.2,2.7-0.6,3.9c-0.4,1.2-1,2.1-1.8,3c-0.8,0.8-1.7,1.5-2.8,1.9c-1.1,0.4-2.3,0.7-3.6,0.7
		c-1.3,0-2.5-0.2-3.5-0.7c-1.1-0.4-2-1.1-2.8-1.9s-1.4-1.8-1.8-3c-0.4-1.2-0.6-2.4-0.6-3.9c0-1.4,0.2-2.7,0.6-3.9
		c0.4-1.2,1-2.1,1.8-3s1.7-1.5,2.8-1.9s2.3-0.7,3.5-0.7c1.3,0,2.5,0.2,3.6,0.7c1.1,0.4,2,1.1,2.8,1.9c0.8,0.8,1.4,1.8,1.8,3
		C146.9,44.3,147.1,45.6,147.1,47z M145.7,47c0-1.3-0.2-2.4-0.5-3.5c-0.4-1-0.9-1.9-1.5-2.6c-0.6-0.7-1.4-1.3-2.3-1.6
		c-0.9-0.4-1.9-0.6-3-0.6c-1.1,0-2.1,0.2-3,0.6c-0.9,0.4-1.7,0.9-2.3,1.6c-0.7,0.7-1.2,1.6-1.5,2.6c-0.4,1-0.5,2.2-0.5,3.5
		c0,1.3,0.2,2.4,0.5,3.5c0.4,1,0.9,1.9,1.5,2.6c0.7,0.7,1.4,1.3,2.3,1.6c0.9,0.4,1.9,0.6,3,0.6c1.1,0,2.1-0.2,3-0.6
		c0.9-0.4,1.7-0.9,2.3-1.6c0.6-0.7,1.1-1.6,1.5-2.6C145.6,49.5,145.7,48.3,145.7,47z"/>
	<path fill="#585C65" d="M150,48h6V49h-6V48z"/>
	<path fill="#585C65" d="M156.2,37.8h1.1c0.1,0,0.2,0,0.3,0.1s0.1,0.1,0.2,0.3l6.3,15.3c0.2,0.4,0.3,0.8,0.4,1.3
		c0.1-0.5,0.2-0.9,0.4-1.3l6.3-15.3c0-0.1,0.1-0.2,0.2-0.2c0.1-0.1,0.2-0.1,0.3-0.1h1L165,56.2h-1.2L156.2,37.8z"/>
	<path fill="#585C65" d="M177.3,56.2H176V37.8h1.3V56.2z"/>
	<path fill="#585C65" d="M198.7,47c0,1.4-0.2,2.7-0.6,3.8c-0.4,1.1-1,2.1-1.8,2.9c-0.8,0.8-1.7,1.4-2.8,1.8
		c-1.1,0.4-2.3,0.6-3.6,0.6h-6.7V37.8h6.7c1.3,0,2.5,0.2,3.6,0.6c1.1,0.4,2,1,2.8,1.8s1.4,1.8,1.8,2.9S198.7,45.6,198.7,47z
		 M197.4,47c0-1.3-0.2-2.4-0.5-3.4c-0.4-1-0.9-1.9-1.5-2.5c-0.6-0.7-1.4-1.2-2.3-1.6c-0.9-0.4-1.9-0.5-3-0.5h-5.4v16.2h5.4
		c1.1,0,2.1-0.2,3-0.5s1.7-0.9,2.3-1.6c0.6-0.7,1.1-1.5,1.5-2.5S197.4,48.3,197.4,47z"/>
	<path fill="#585C65" d="M214,37.8v1.1h-9.7v7.4h8.1v1.1h-8.1v7.7h9.7v1.1h-11V37.8H214z"/>
	<path fill="#585C65" d="M234.8,47c0,1.4-0.2,2.7-0.6,3.9c-0.4,1.2-1,2.1-1.8,3s-1.7,1.5-2.8,1.9c-1.1,0.4-2.3,0.7-3.6,0.7
		c-1.3,0-2.5-0.2-3.5-0.7c-1.1-0.4-2-1.1-2.8-1.9s-1.4-1.8-1.8-3c-0.4-1.2-0.6-2.4-0.6-3.9c0-1.4,0.2-2.7,0.6-3.9
		c0.4-1.2,1-2.1,1.8-3s1.7-1.5,2.8-1.9c1.1-0.5,2.3-0.7,3.5-0.7c1.3,0,2.5,0.2,3.6,0.7c1.1,0.4,2,1.1,2.8,1.9s1.4,1.8,1.8,3
		C234.6,44.3,234.8,45.6,234.8,47z M233.4,47c0-1.3-0.2-2.4-0.5-3.5c-0.4-1-0.9-1.9-1.5-2.6c-0.6-0.7-1.4-1.3-2.3-1.6
		c-0.9-0.4-1.9-0.6-3-0.6c-1.1,0-2.1,0.2-3,0.6c-0.9,0.4-1.7,0.9-2.3,1.6c-0.7,0.7-1.2,1.6-1.5,2.6c-0.4,1-0.5,2.2-0.5,3.5
		c0,1.3,0.2,2.4,0.5,3.5c0.4,1,0.9,1.9,1.5,2.6c0.7,0.7,1.4,1.3,2.3,1.6c0.9,0.4,1.9,0.6,3,0.6c1.1,0,2.1-0.2,3-0.6
		c0.9-0.4,1.7-0.9,2.3-1.6c0.6-0.7,1.1-1.6,1.5-2.6C233.2,49.5,233.4,48.3,233.4,47z"/>
</g>
</svg>
